<?xml version="1.0" encoding="UTF-8"?>
<svg id="Layer_1" data-name="Layer 1" xmlns="http://www.w3.org/2000/svg" version="1.1" viewBox="0 0 1000 655">
  <defs>
    <style>
      .cls-1 {
        fill: #eb6f3e;
        fill-rule: evenodd;
        stroke-width: 0px;
      }
    </style>
  </defs>
  <path class="cls-1" d="M281.8,78.1c-12.4,1.8-21.1,6.2-29.7,14.8-3.3,3.3-7.7,8.5-9.7,11.4-3.5,5.2-3.7,5.4-8.8,6.6-15.8,3.9-29.8,17.2-39.3,37.5l-3.2,6.7-5,1.4c-19.5,5.7-33.8,28-39.8,62.2l-1.4,8.2h-15.5c-9.7,0-16.2.3-17.5.9-5.1,2.3-9.1,19.1-8.2,33.7.7,10.1,3.2,19.6,6.1,22.8l2.2,2.5,16.5.2,16.5.2.5,3.8c5.1,36.6,20.6,61.6,41.4,66.9,3.5.9,3.8,1.2,6.4,6.7,9.4,19.8,21.8,32.7,36,37.5,2.7.9,5.7,1.6,6.8,1.6s2.8,1.3,5.5,5.4c9.1,13.5,20.4,22.4,32.5,25.6,5.5,1.4,17.9,1.4,23.1,0,11.8-3.1,21.3-10,30.2-21.8,17.6-23.3,28.3-62.3,32.5-118.8l.5-7.1,7.7.2,7.7.2,1,6.4c1.1,7.1,3.9,16.5,9.4,32.1,6.6,18.7,12.7,38.4,13.8,44.2.6,3.2,1.9,11.5,2.9,18.5,1.8,12.5,1.8,14.4,1.9,91.1,0,43.1.3,82,.7,86.4.9,12.6,2.3,24.8,3,26.1.9,1.8,1.5-22.4,2.4-96,1-79.1.5-95-3.2-116-2.6-14.6-8.2-36-14.1-53.2l-3.4-10.1,1.4-4.4c3.5-11.4,10.2-18.4,22.2-23.7,3.5-1.5,15.6-2.8,15.6-1.7s-1.3,2.3-2.9,4.2c-1.6,1.9-2.6,3.5-2.4,3.5,1.5,0,11.2-7.4,16.3-12.3,3.2-3.1,5.8-5.4,5.8-4.9,0,.4-4.1,5.8-9,12-7,8.7-10.2,12-14.2,14.7-2.9,1.9-6,4.1-6.9,4.8-2.2,1.8-7,9-6.5,9.6.2.2,1.8-.4,3.5-1.5,2.9-1.8,5.6-2.9,15.1-6.2,3-1,4.6-2.3,7-5.4,3.3-4.4,14.4-15.6,14.4-14.6s-1,1.8-2.2,3.2c-1.2,1.4-3.9,5.2-5.8,8.4-2,3.2-5.3,8.4-7.3,11.6-2.1,3.2-3.6,5.9-3.4,6.2.4.4,9.1-8.4,15.6-15.7,6.9-7.7,23.1-20.1,24.4-18.8.2.2,0,2.4-.7,4.8-1.2,4.9-2.3,14.4-1.6,14.4s2.2-3.7,4.3-8.3c4-8.6,10-18.4,12.9-21,2.1-1.9,2.1-1,0,1.8-2.4,3.4-8,19.9-9.3,27.5-1.5,9-1.4,11.1.4,5.6,4-12.2,10.6-24.3,15.6-28.8,1.5-1.3,4.1-2.6,5.8-2.9,1.7-.3,3.5-.8,3.9-1.2.4-.3,3.7-1.6,7.2-2.9,5.7-2,7-2.9,11.4-7.5,5.8-6.1,6.7-6.1,9.5,0,2.3,5.1,4.4,7.2,9.6,9.5,2.1.9,5.3,3,7,4.6,6.9,6.3,1.9-1.1-6.2-9.1-5.3-5.2-5.9-6.1-6.3-9.6-.3-2.2-.6-4.7-.8-5.7-.1-1,0-2,.2-2.1.3-.2,3.4.2,7,.7,4.5.7,8.4,2,12.9,4.3,3.5,1.8,7.5,3.5,8.8,3.8,2.3.5,2.3.5-.8-1.7-1.8-1.2-5-3.7-7.2-5.5-2.2-1.8-4.2-3.4-4.4-3.5s-.1-.5.2-.7c.6-.6,7.4,3.2,10,5.6,2.2,2,2.4.6.5-2.6-2.3-4-.4-5.5,6.1-4.9,4.5.4,17,12.6,21.2,20.6,1.1,2.2,2.1,3.6,2.1,3.1,0-1.8-3.3-10.4-5.7-14.6-1.4-2.4-2.3-4.5-2.1-4.7.2-.2,2.2,1.3,4.5,3.3,2.3,2,4.4,3.6,4.5,3.6s2.2-2,4.6-4.3c2.9-2.9,5.7-4.8,8.5-5.8,2.3-.8,4.2-1.8,4.2-2.1s-3.5-.6-7.8-.7c-8,0-17-1.1-13.1-1.6,1.1-.1,4.1-.1,6.6,0,2.5.1,6.3-.2,8.4-.6,2.1-.5,5.3-1.1,7-1.4l3.2-.5-3.8-1.9c-6.3-3.2-7.6-6.9-5-14.1,1.7-4.6,4.3-14.6,4-15-.2-.2-1.5,2.1-2.9,5-3.2,6.5-6.9,11.8-9.8,14.1-2,1.6-13.5,6-13.5,5.2s1.8-1.3,4-2.4c4.3-2.2,10.4-7.3,10.4-8.7s-.5-1.4-1.1-2.1c-1-1.1-.9-2,.8-7,1.1-3.1,2.1-8.4,2.4-11.7l.4-5.9-1.9,6c-5.4,17.2-15.7,29.5-27.2,32.6-9.2,2.4-18.2,1.1-34.5-5.3-15.5-6-25.9-12.6-30.1-19-3.2-4.9-3.8-13.5-1.4-18.4,1.4-2.7,1.5-2.9,1-.8-1.1,4.7-.5,11.9,1.3,15.7,2.6,5.4,6.7,9.1,15.3,14,16.7,9.4,36.6,14.9,46.1,12.5,8.2-2,14.6-7.2,18.6-15.2l2-3.9-9,.3c-7.2.3-9.1.6-9.7,1.6-.4.7-2.2,2.8-3.9,4.5l-3.1,3.2,2-3.6c2.7-4.8,5-12.2,5.7-18,.6-5.4-.7-5.8-1.5-.4-1,6.2-3.8,10.4-8.9,13-2.6,1.3-4.1,1.5-8.4,1.1-2.8-.3-5.3-.6-5.5-.8-.2-.2,1.7-2.3,4.1-4.7,2.5-2.4,4.5-4.8,4.5-5.5s-1.1,0-2.6,1.4c-4.9,4.7-9.5,6.1-20.3,6.3-5.3,0-8.6,0-7.2-.2,10.9-1.6,21.8-3.8,23.4-4.9,4.6-3,7.9-14.1,6-20.3-1.4-4.6-3.7-5.5-14.9-6.2-5.1-.3-9.2-.7-9-.9.2-.2,8.1-.9,17.5-1.5,16.3-1.1,17.5-1.3,25.6-4.1,7.7-2.7,9.2-3,16.9-3,9.6,0,11.3.6,16.7,6.1,4.8,4.9,6.9,8.6,16,27.3,4.4,9.1,11,21.9,14.5,28.5,8.2,15.1,10.2,21.3,10.2,32,0,12-1.2,14-21.9,35.3-9.2,9.4-19,19.9-21.9,23.5s-10.6,11.9-17.3,18.5c-13,13-17,15.8-27.3,18.4-6.9,1.8-20.7,1.6-31.8-.4-12.4-2.2-25-5.8-23.9-6.8s1.4,0,2.7.5c6.8,2.7,20.5,4.9,32.6,5.3,11.9.4,12.9.3,20.1-1.7,4.1-1.2,7.8-2.4,8.2-2.8.4-.4-2.4-.8-6-1.1-3.7-.2-7.6-.8-8.7-1.3-1.6-.7-.6-.8,4.6-.4,8.1.6,13.6-.6,19.1-4.1,3.9-2.5,17.3-15.6,23.4-23,6.6-7.9,11.9-14.5,12.1-15.1.1-.3-1.3-.4-3-.3-3.9.4-10.4-.5-10.4-1.4s2.8-.8,6.1-1.1c9.7-.7,14.2-3.4,25.4-14.9,11.6-11.9,13.6-15.2,14.1-23,.5-8.2-1.9-17-8-29.2-2.7-5.4-5-9.8-5.2-9.6-.1.1.1,5.2.6,11.2.8,10.3.8,11.1-.7,13.6-1.2,2.1-2.6,3-6.3,4.3l-4.8,1.6,3.2.6c1.8.3,4.5.6,6,.7,2.6.1,2.7.2.8.8-4.5,1.4-11.3.8-23.3-2.1-1.4-.3-.8.3,1.8,2,2.1,1.3,4.7,2.7,5.8,3,2.3.6,2.7,1.5.8,2.3-2.5.9-4.1.5-11.9-3.5-8.6-4.4-12.6-5.4-6.9-1.7,2,1.3,5.2,3.6,7.1,5.3,4,3.4,7,5,11.7,6.5,2.8.9,3,1,1.1,1.1-1.2,0-3.1-.3-4.3-.7-1.6-.6-2.7-.5-4.4.4-2.3,1.2-2.4,1.1-7.2-3.3-4.6-4.3-6.5-5-3.5-1.3.8.9,3.1,4.3,5.2,7.6,2.1,3.2,4.4,6.7,5.1,7.7l1.3,1.8-3.9-2c-3.5-1.8-4.3-1.9-7.2-1.2-6.4,1.7-10.9-.8-21.5-11.6-3.3-3.4-3.7-3.6-2.8-1.6,2.8,6.5,12.1,16.6,18.8,20.5,2,1.1,3.8,2.3,4.1,2.6.7.7-5.5-1.5-7.8-2.7-1.4-.8-2.2-.5-5.3,2.1l-3.6,2.9-4.4-3.3c-2.4-1.8-6.3-5.6-8.6-8.3-2.3-2.8-4.5-5.1-4.9-5.3-1.6-.6,4.4,9.7,9,15.4,5,6.3,7.6,8.5,12.7,11,2.5,1.2,2.6,1.5,1.1,1.5-1,0-3.1-.5-4.7-1.2-1.6-.7-3.4-1.2-4-1.2s-3.5,1.8-6.4,4c-6.5,4.9-11.3,6.9-15.1,6.1-2.5-.5-11.1-6.2-14.7-9.7-.6-.6-1.5-1.2-2-1.2-1.2,0,6,9,10.4,13,2.2,1.9,5.9,4.2,8.3,5.1,2.4.9,3.8,1.7,3,1.9-2.4.5-10.1-2.3-14.9-5.4-6-3.9-15-12.7-17-16.7-1.9-3.7-7.4-12.8-7.4-12.3s.7,3,1.6,6.3c2.2,7.9,4.7,12.6,11.4,21.6,6.6,8.8,6.8,8.2-3.8,12.5-5.6,2.3-7.3,2.6-13.3,2.6-5.9,0-7.3-.3-10.1-2.1-6.3-4.1-12.5-12.1-15.6-20.3-1.4-3.6-1.7-2.1-.8,3.6,1.5,9.7,5.2,16.7,12.3,23.5,4.2,4,2.7,3.8-3.5-.3-5.2-3.5-10.9-9.9-11.8-13.2-.3-1.1-.8-1.9-1.3-1.9s-.6.8-.3,1.8c.3,1,.7,3.2,1,4.8.5,2.8.4,3-1.5,3-2.9,0-9.4-4.7-11.1-8-.8-1.5-1.7-4.6-2-6.8-.8-5.8-1.8-2.6-1.9,5.7,0,5.9.2,7,2.8,12.2,1.6,3.1,4.5,7.6,6.6,9.9,2.1,2.3,3,3.7,2,3-3.4-2.3-9.1-8.1-11.2-11.2-1.1-1.7-2.2-3.1-2.3-3.1s-1.8,1.6-3.7,3.5c-3.6,3.6-9.6,6.1-14.5,6.1s-2.9,1.4.7,5.7l3,3.6-4-2.9c-7.9-5.8-9.4-14-4.7-25.8,1.4-3.4,2.4-6.2,2.2-6.2-.7,0-7.5,12.2-8.7,15.6-1.5,4.4-1.8,10.5-.6,13.6.4,1.1,2.1,3.5,3.7,5.3,1.6,1.8,2.6,3.3,2.2,3.3-1.3,0-8-7.6-9.8-11.2-1.3-2.5-1.6-4.3-1.3-6.7l.4-3.3-1.1,3.2c-1.4,4.1-1.5,7-.3,11,.8,2.7.7,3.3-.5,4.7-1.7,1.9-9.2,4.8-12.5,4.8s-2.5.3-2.8.7c-.6,1,5.4,2.9,16.3,5,8.6,1.7,9.7,1.7,20.5.8,6.3-.5,15.7-1.7,21-2.7,12.1-2.1,17.3-1.7,29.2,2,9.8,3.1,25.6,6.1,32.3,6.1s4,.3,3.7.7c-1.7,2.8-21.9.8-35.6-3.5-14.2-4.5-17.9-4.9-26.4-3.4-4,.7-10.6,2.1-14.8,3-4.2.9-11.3,1.8-15.7,2s-8.9.3-10,.4c-1.1,0,1.4,1,5.6,2.1,5.9,1.5,8.9,1.9,13.3,1.6,3.1-.2,12.5-.6,21-.9,14-.5,15.9-.4,22.1,1.2,7.6,1.9,27.4,8.8,25.7,8.8-.6,0-4.9-.5-9.6-1.2-4.8-.7-10.5-1.1-13.1-.8-6.3.6-15.2,2.4-15.2,3s3.9.7,8.6,1c14.7.8,28.5,6.1,37.4,14.2,7.8,7.2,8.9,10,10.1,27.1.5,6.2,2.2,17.3,4.4,28.3,2,9.9,5.4,26.7,7.6,37.2,3.7,18.3,4.4,23.8,1.4,12.6-4.1-15.8-17.2-55.4-17.3-52.6-.2,3.5,2,19.9,3.6,26.5,1,4.4,2.3,10.7,2.8,14.1.5,3.3,1.6,8.7,2.5,12.1.8,3.3,2.3,9.3,3.2,13.3,4.1,18,12.7,48,14.1,49.3.3.3.3-.4,0-1.5-1-4.2-1.6-27.7-.7-26.9.5.4,3.2,6.6,6.2,13.7,11.4,27.5,14.5,34.6,15.9,37l1.5,2.4-.5-4.4c-.3-2.4-3.9-21.5-8.1-42.4-4.2-20.9-7.6-38.4-7.6-38.9s.3-.6.8-.1c.9.9,1.2,1.8,11.3,30.9,8.9,25.8,11.9,33.9,13,35,.6.6.7.3.4-.8-.3-.9-1.6-7.2-2.9-14.1-1.4-6.9-6.8-29.6-12-50.6-14.5-58-20.4-89.7-20.3-109.3,0-10.6.9-15.2,4.2-22.1,2.3-4.9,7.9-12.1,8-10.3,0,.5-.3,1.2-.8,1.5-1.7,1-5,8.8-6.1,14.3-3.1,14.7,1.9,55.7,12.2,99.4,10.5,44.8,12.6,51.8,25.8,86.6,6.8,17.8,8.2,21.2,7.4,17.1-1-4.7-8-31.3-11.9-45-19.8-70.3-26.3-103.7-27.8-141.5-.5-13.8-.5-14.2,1.6-19.6,1.8-4.9,6-13,7.9-15.4,8.9-11.3,24.8-30.5,34.3-41.4,2.5-2.9,10.4-11.2,17.5-18.5,7.1-7.3,13.9-14.6,15-16.3l2-3.1.5,7.5c2.4,33.2,7,59.3,14.4,82.1,8,24.3,20.2,42.9,34.2,51.9,14.9,9.6,34.2,9.9,49.5.9,6-3.6,15.2-12.6,19.7-19.3,1.9-2.9,3.6-5.3,3.7-5.5.1-.1,2.5-.8,5.2-1.4,7.4-1.7,15.6-6.4,22.2-12.6,6.6-6.3,11.4-13.1,16.8-24.1,3.8-7.6,3.9-7.8,7.4-8.7,19.5-4.9,33.6-25.8,40.1-59.1l2.2-11.5,16.2-.2c15.9-.2,16.3-.3,18.3-2.2,2.7-2.5,5.3-10.8,5.9-18.7.2-3.4.8-6.2,1.1-6.2s.6-2.3.6-5c0-4-.2-4.5-.7-2.6-.5,2-.6,1.7-.7-2-.2-9.4-4.2-20.7-7.9-22.4-1.2-.5-7.9-.9-17.4-.9h-15.5l-1.8-9.7c-6.3-33.7-20.3-55.4-39.4-60.7l-4.9-1.4-3.5-7.3c-9.9-20.7-24.3-34.2-39.8-37.4-4.2-.9-4.6-1.1-8-6.3-15.2-22.5-38.5-31.6-59.8-23.3-4.2,1.6-13.2,7.3-16.6,10.5-5.3,4.9-13.5,16.3-17.6,24.4-12.6,25.1-20.5,59.5-23.8,103.9l-.6,7.4h-11.7l.4-3.4c.7-6.9,2.1-15.7,3.6-23.8,2.4-12.1,1.9-18.3-2.4-29.4-4.4-11.5-8.9-18.8-14.9-24.2-9.7-8.8-18.4-12.8-30.6-13.9-12.8-1.2-17.7.7-24.6,9.6l-2.1,2.6-3.9-2.9c-5.3-4-8.7-5.7-17-8.1-6.1-1.8-8-2-13.8-1.6-7.3.5-14.7,2.7-20.1,5.8-4.9,2.9-12.2,10.4-12.7,13.2-.5,2.3-.6,2.3-3.8,1.8-1.8-.3-7.1-.6-11.8-.6-6.9,0-9.6.4-15,2.2-8.8,2.9-17.9,7.4-20.3,10.3l-2,2.3-6.8-1.2c-4.1-.7-9.4-1.1-13.3-.9-12,.7-18.2,5.5-29.5,23.1-2.4,3.8-8.4,12.4-13.4,19.3-6.2,8.7-9.2,13.6-9.9,16.3l-1,3.8h-12.4l-.5-6.2c-3.9-47.9-11.1-79.6-23.9-105-8.3-16.5-20.6-29.3-33.3-34.7-6-2.5-15.6-3.9-21.2-3.1M275.4,84.5c-23.4,6.3-42,36.2-51.5,82.7-5.1,24.7-7.2,46.5-7.8,80.8-1.5,84.6,13.5,147.1,41.2,171.9,20.2,18,47.7,14.4,65.6-8.7,5.1-6.6,12.8-21.4,16.7-32.1,3.3-9.2,8.3-28.9,10.3-41.1,3.4-20.2,6.1-49.4,4.8-50.9-1.1-1.3-2.1,2.8-2.6,11.2-.7,11-4.1,36.9-6.1,46.6-9.4,45.8-26.4,74.1-48.2,80.4-10,2.9-18.1,2.1-28.1-2.6-6.9-3.3-14.8-10.6-20.1-18.8-3.5-5.4-10.1-18.3-11.3-22.2-.4-1.3-1.7-4.8-2.8-7.9-3.1-8.3-10.6-39.5-9.7-40.4.1-.1,1.6,4,3.2,9.2,3.6,11.7,10.7,26.5,14.7,30.9,2.7,3,3,3.2,4,1.9,1.5-2.1,1.4-3.9-2.2-26.3-3.8-24.1-6.1-42.5-7.2-58.6-1.1-15.9-1-55,.3-81,1.2-24.5.9-30.1-1.5-30.1-4.3,0-10.8,20.5-14.9,47l-1.6,10,.4-9.6c1-21.8,4.2-46.2,8.5-64.3l2.5-10.4,1.1,4.4c2.1,8,6.5,10.3,10.3,5.3,1.2-1.6,4.1-8.8,6.8-17.1,2.6-7.9,5.7-16.9,6.8-20,3.3-9.1,2.7-12-2.4-10.8-1.5.3-3.6,1.2-4.6,1.9-1,.7-2.7,1.9-3.7,2.7-1.9,1.4-1.9,1.4.4-2.6,20.4-35.3,54.6-37.9,76.5-5.6,14.9,21.9,25.9,62.4,28.8,105.7.7,9.7,1,11.3,2.5,11.3s1.1-.6.8-1.8c-.2-1-.6-5.6-.9-10.2-.7-12.3-3.2-30.8-5.9-44.6-11.2-56.4-33.5-87.4-62.7-87.1-3.3,0-8,.6-10.4,1.2M713.4,84.8c-20.6,6.7-35.9,27.7-46.3,63.9-5.2,18-10,45.9-11.1,65.2-.3,4.4-.7,9.2-.9,10.6-.3,1.9,0,2.6.8,2.6,1.6,0,2.1-1.8,2.1-7.1,0-5,3.1-30.6,5.2-42.8,6.8-39.6,21.6-70.9,39.1-82.8,21.5-14.6,44.9-6.2,61.8,22.2l1.9,3.2-2-1.4c-1.1-.8-2.8-2-3.8-2.7-1-.7-3-1.6-4.6-1.9-5.4-1.2-5.8,2.1-1.7,13.1,1.6,4.2,4.6,13.2,6.8,20.1,4.2,13.1,6.7,17.4,9.9,17.4s5.1-3.1,6.4-8l1.1-4.4,2.1,8.9c4.5,18.7,7.9,44.5,8.9,66.2l.4,9.2-1.5-9.2c-4.5-28.2-10.7-47.8-14.9-47.8s-2.8,4.9-1.5,30.1c1.5,30.1,1.5,65.8,0,84.9-1.4,18-2.7,27.7-6.9,54.8-3.5,22.6-3.6,24.1-2.1,26.1,1,1.3,1.3,1.2,4-1.8,3.9-4.3,10.3-17.5,14.1-29.2,1.7-5.2,3.3-9.6,3.5-9.9.2-.2-.4,3.7-1.4,8.7-8.9,43.6-23.2,70.3-42.8,79.9l-6.2,3h-10.4c-10.1,0-10.6,0-16-2.6-3.1-1.4-7.6-4.3-10-6.4-16.8-14.3-30.3-47.9-35.9-89-2.2-16.3-3.5-28.1-3.6-34-.1-4.2-.5-6-1.3-6.3-.6-.2-1.2-.3-1.4-.1-.4.4.9,18.4,2,27.6,1.5,13.2,4.9,32.4,7.2,41.6,3.7,14.7,4.7,17.8,8.1,26.5,4.3,10.9,6,14.3,10.9,21.9,10.5,16.5,22.9,24.8,38.5,25.9,26.5,1.8,46.6-19.6,59.7-63.5,2.9-9.6,4.2-15.6,8.2-37.6.4-2.4,1.3-9.7,2-16.1,4.7-46.1,3.5-96.5-3.3-136.2-9.2-53.3-28.4-86.6-53.8-93.2-6.3-1.6-15.7-1.5-21.3.3M292.6,101.2c-30.3,14.1-48.5,109-39.4,205.5.7,7.3,1.4,14.3,1.6,15.7,3.7,24.7,6.8,38.4,12.5,56.8,4.8,15.3,9.1,24.2,15.1,30.6,1.1,1.2,1.8,2.5,1.5,2.8-.3.3-2.5.6-4.8.6-8,0-17.8-6.7-24.6-16.9-4.9-7.4-5.3-6.7-.7,1.4,4.3,7.5,13.1,16.3,19.5,19.6,4.3,2.1,5.6,2.4,12.1,2.4,5.3,0,8.1-.4,10.4-1.5l3.2-1.5-4.3-1.6c-2.6-1-5.7-3-7.7-5-11.1-11.1-21.1-39.9-27.7-79.2-5.8-34.8-6.6-90.5-2-129.4,6.2-52.7,20.4-91.4,36.1-98.8,5.5-2.6,10.8-2,16.1,1.9,4,2.9,5,3.1,2,.4-3.6-3.3-8.5-5.6-12.1-5.6-1.5,0-4.6.8-6.9,1.9M705.5,100.5c-3.1,1.3-8.4,5.3-7.9,5.8.2.2,1.6-.5,3-1.6,5.7-4.2,10.8-4.8,16.7-1.8,18.2,9.2,32.8,55.8,37.9,121.2,1.2,15.6.5,66.7-1.2,82.5-3.4,32.5-9.4,60.2-17.4,80.6-5.9,15.2-13.3,24.8-21.1,27.8l-4.2,1.6,3.2,1.5c2.4,1.1,5.1,1.5,10.4,1.5s7.8-.3,12-2.4c6.3-3.2,15.4-12.2,19.1-18.9,4.5-8.1,4.4-9-.2-2.2-4.5,6.7-11.2,12.7-16.9,15.3-3.4,1.5-11.4,2.3-12.5,1.2-.3-.3,1.4-3,3.7-6,4.9-6.4,7.7-12.3,12.1-25.5,18.9-56.6,22.6-147.6,8.7-214.3-5-24-13.3-45-22.2-56.4-7.2-9.2-16.1-13-23.3-9.9M226.3,119.1c-4,2-7.7,4.8-11.6,8.6-6.7,6.7-9.3,10.3-14.3,20.2-12.4,24.4-18.7,56.6-19.6,100.5-1.4,69.1,11.7,119.8,36.4,141.1,4.5,3.9,11.5,7.7,15.6,8.5,2.4.5,2.4.4,1.5-1.5-.6-1.3-2.9-3-6.7-4.9-11.5-5.7-21.4-18.5-28.9-37.5-2.1-5.2-6.4-20.3-7.3-25.7l-.5-2.8,1.3,3.2c7.5,18.1,12.7,26.8,16.2,26.9.7,0,1-1.6,1-5.7s-2.9-34.7-4.9-49.8c-.5-4-1.1-26.9-1.4-55.1-.5-48-.8-51.8-3.3-51.8s-9.8,18.2-12.9,36.2c-1.8,10.4-2.7,12.4-2,4.3,2.2-25.1,3.6-35.5,7-49.8,2.5-10.6,3.9-14,3.9-9.6,0,2.6,2.6,7.4,4.4,8.1,1.5.6,4.9-1.9,6.1-4.5,2.8-5.8,12.6-36.3,12.2-38.1-.5-2.4-3-2.7-6.7-.8-1.3.7-2.4.9-2.4.5s2.7-3.6,6-7.2c4.7-5,7.4-7.2,12.4-9.8,5.4-2.8,7.3-4.4,7.3-6.2s-3.7,0-8.9,2.6M775.6,117.5c.3.7.5,1.4.5,1.6s2.9,1.8,6.5,3.7c5,2.6,7.8,4.8,12.5,9.8,3.3,3.6,6,6.8,6,7.2s-1.1.1-2.4-.5c-1.3-.7-3.3-1.2-4.4-1.2-3.6,0-3.2,2.6,3.3,21.6,6.2,18.3,7.5,21.1,10.3,22.6,1.7.9,2.3.9,3.3,0,2-1.7,3.6-5.3,3.6-8.2,0-4.2,1.1-1.3,3.8,10.2,2.7,11.5,5.4,29.5,6.2,41.4.3,4.2.7,8.4.9,9.4s0,1.8-.3,1.8-1.1-2.9-1.7-6.4c-2.5-16.5-9.7-37-13-37s-2.8,3.7-3.3,50.2c-.5,46.8-.9,54.4-4.4,82-.7,5.3-1.4,14.3-1.7,19.9-.4,8.5-.3,10.2.6,10.2,3.6,0,8.7-8.6,16.3-26.9l1.3-3.2-.5,2.8c-1,5.7-6.2,22.9-8.8,29-7.3,17.4-16.2,28.5-27.3,34.1-4.9,2.5-7.5,4.9-7.6,7,0,.3,2.1-.2,4.6-1.1,20.2-7.5,34.7-30.4,43.2-68.2,2.5-11.2,4.8-28.3,6.1-45.8,1.2-16.5.6-52.5-1.2-67.5-5.4-45.2-17.3-76-35.2-90.9-7.5-6.2-18.6-11.1-17.2-7.5M526.7,137.5c-8.5,1.7-17.2,7.5-21.4,14.3l-1.8,2.9,3.1,3.2c4,4.1,9.7,15.6,10.9,21.8.7,3.8,1.2,4.9,2.3,4.9s1.3-.5.9-3.8c-.3-2.1-1.2-5.8-2-8.2-1.5-4.5-1.5-5.7.3-4.3,3.7,3,25.3,5,29.3,2.8,1.9-1,4.2-4.9,4.2-6.9,0-3.1-8.9-4.8-20.1-3.8-4.6.4-8.6.6-8.7.5-.8-.7,5.6-3,13.5-4.7,4.9-1.1,9.4-2.3,9.8-2.8,1.7-1.7-.2-4-4.9-6.1-4-1.8-5.8-2.1-12.4-2.1s-8.8.4-11.8,1.5c-5.6,2.1-3.7,0,2.5-2.7,3.1-1.4,7.5-2.5,12.3-3.1,7.2-.8,7.8-.8,14.5,1.3,8,2.5,12.4,6.1,15.5,12.7,2.1,4.4,4.5,17.6,3.8,20.5-.4,1.6-.2,1.9.9,1.7,2.2-.4,2.4-8.8.3-15.8-.9-3-1.6-6.3-1.6-7.2,0-2.6-7.5-10.2-12.2-12.4-4.7-2.2-16.7-5.5-19.9-5.4-1.1,0-4.5.6-7.5,1.2M582,137.9c-4.8,1.9-8,4.8-10.2,9.5-1.4,2.9-1.6,4.4-1.2,8.3.8,7.8,2.1,8.5,2.1,1.2,0-6.8.5-8.1,4.6-13.2,3.5-4.3,6.8-5.4,14.8-4.8,7.9.5,12.9,2.8,20.2,9.1,6,5.2,5.9,6.7,0,2.8-6.7-4.3-13.1-6.7-19.1-7.1-6.8-.5-7.6.1-8.3,6.8-.5,4.3-.6,4.6-3.1,5.3-1.4.4-2.6,1.1-2.6,1.5s1,.4,2.2,0c3.8-1.1,10.7-.5,20.5,1.7,5.2,1.2,9.6,2.1,9.8,2.1s.4.3.4.7-3.5.2-7.8-.4c-6.9-1-13.8-.8-15.7.3-.4.2-.2.9.3,1.5.7.9.7,1.4,0,2.4-.9,1.1-.5,1.2,4.1.7,2.8-.3,8-.2,11.6.3,4.8.6,7.1.5,9-.3,2.9-1.2,7.5-5.7,7.5-7.3s.4-1.1.8-1.1c1.7,0,.8,21.4-1.3,30.5-1.2,5.5,3.5-4.9,5.2-11.7.5-1.8.9-5.6.9-8.6s.3-5.6.7-5.8c.4-.3,2.3,3.4,4.1,8.1,4.4,11.4,4.3,15-1.1,26l-3.7,7.6,3.6-4c2-2.2,3.8-3.8,4.1-3.5.5.5-.5,6.2-2.5,14.8-.9,3.8-1,5.4-.3,7.2,1.1,2.8,1,3.3,4.1-12.2,3.6-18,3.5-23.9-.5-34.6-4-10.5-7.3-15.6-14.8-22.9-11.3-11.1-26.8-15.7-38.2-11.2M306.9,142.4c-3.6,1.8-8.9,7.9-12.1,13.9-1.5,2.7-2.5,5.1-2.3,5.3.2.2,1.6-1.6,3.1-3.9,3.6-5.4,8.7-8.3,13.1-7.5,8.4,1.6,16.4,15.5,22.1,38.3,2.1,8.5,4.7,24.1,5.4,32.3l.5,6.2h7.7l-.3-2.6c-.2-1.4-.7-6.4-1.2-11.1-2.2-21.3-9.1-46.7-15.7-58.4-4.3-7.5-6.7-10.2-11.2-12.4-4-1.9-5.6-2-9.1-.3M694.3,142.8c-12.9,6.4-22.6,34.3-27.9,80.1l-.5,4.2h8.1v-3c0-5.7,3.3-25.6,6-36.4,2.8-11,6.6-21.2,10.5-27.8,7.2-12.2,17.8-13,24.7-1.9,3.4,5.5,3.8,4.4.6-1.7-4.6-8.6-11.8-15.2-16.5-15.2-.8,0-3,.8-4.9,1.7M479.1,156.4c-1.8.4-7.9,2.4-13.7,4.6-9.5,3.6-10.6,4.2-12,6.8l-1.6,2.9,3.2,5.1c4,6.4,4.9,10,5.9,25,.7,10.7,1.1,12.6,3.6,18.8,1.5,3.8,4.1,13,5.7,20.3,4.1,19.1,6.5,23.4,15.1,27,8.9,3.7,24.2-1.2,29-9.4,2.4-4,2.4-4.3,1.6-16.4-.6-8.6-.7-9.1-3-11.3l-2.4-2.2.5,2.8c1.3,7.6,2.3,20.4,1.8,23-1.1,5.8-8,10.1-18.5,11.3-3,.3-5.2,0-8.6-1.3-4.4-1.7-8.3-5.1-7.4-6.5.2-.4,4.2-.7,8.9-.7,8.5,0,15.2-1.1,16.1-2.6.3-.5,0-.6-1-.2-2.9,1.1-13.3,2.3-14.1,1.5-.4-.4-.1-1.4.8-2.4,4.6-5,5.9-10.4,4.5-19.8-.6-4.1-1.4-10.7-1.9-14.8-.5-4.9-1.5-8.8-2.9-11.8-2-4.3-2.3-4.5-9.7-8.1-4.2-2-8-3.7-8.4-3.7s-.7-.3-.7-.6,3-.6,6.6-.7c7,0,17.8-2.5,23.3-5.3,3.5-1.7,4-2.6.9-1.4-4.1,1.6-26.8,1.5-26.8,0s1.6-.7,3.7-.7c2,0,5.5-.6,7.8-1.3,2.3-.7,6.4-1.8,9.1-2.4,2.7-.6,6.1-1.7,7.6-2.4l2.7-1.2-4.2.5c-4.2.5-4.2.5-4.3-1.8,0-3.6-4.8-10.9-7.6-11.7-3.7-1.1-8.3,0-15.3,3.4-8,4-9.3,4.1-3.7.3,9-6.1,13-7.5,20.3-7.5,5.4,0,7.3.4,9.9,1.8,6.2,3.5,11.7,13.2,11.7,20.5s.3,2.6,1,2.4c1.8-.6,1.1-9.3-1-13.4-5.2-10.1-9.5-13.8-18.4-15.7-5.9-1.2-9.3-1.3-14.2-.3M182,163.8c-20.8,10.3-33.7,45.9-33.7,93.2,0,42.7,10.3,76.7,27.1,89.5,4.2,3.2,12.1,7.3,12.8,6.6,1.2-1.2-1-3.9-5.1-6.2-9.5-5.4-16.7-15.3-22.1-30.8-3.6-10.3-3.8-12.1-.8-6.5,3.2,5.7,5.6,9.2,8.5,11.8,4.9,4.5,5.3,2.1,2.6-16.9-3.3-23-3.8-30.5-4-57.7-.1-20.4-.4-26.1-1.2-27.1-1.3-1.6-2.6-.8-5.3,3.6-2.2,3.5-6.8,16.7-6.8,19.5s-.3,2.3-.8,2.5c-1.2.8,1.2-23.3,3.1-30.9.4-1.5,1.1-4.4,1.7-6.4l.9-3.6,1.2,3c1.5,3.8,4.6,4.9,6.7,2.4,1.6-2,8.8-23.5,8.8-26.4s-1.7-3.2-4.7-1.6c-1.4.7-2.5,1-2.5.6,0-1,7.3-9.5,10-11.7,1.3-1.1,3.9-2.7,5.7-3.6,3-1.5,4.3-3,4.3-5s-1-.9-6.5,1.8M821.9,161.9c0,2,1.3,3.5,4.3,5.1,1.8.9,4.4,2.6,5.7,3.7,2.9,2.4,10,10.7,10,11.6s-1.1,0-2.5-.6c-3.2-1.6-4.8-1-4.7,1.8,0,3,7.5,25,9.1,26.5,2,2,5.1.7,6.2-2.6.5-1.6,1.1-2.7,1.3-2.5,1,1,3.6,13.3,4.7,22.6,2,16.9,2,17.3,1.2,17.3s-.8-1-.8-2.1c0-2.9-4.6-16-6.8-19.6-2.7-4.3-4-5.2-5.3-3.5-.9,1.1-1.1,6.5-1.3,27.1-.2,27.1-.7,34.6-3.9,57.3-2.2,15.4-2.4,18.4-1.2,19.1,1.9,1.2,9-7,12.6-14.5,2.9-6.1,2.3-2.4-1.2,7.4-5.4,15.4-12.6,25.4-22.1,30.8-4,2.3-6.2,5-5,6.2.7.7,8.7-3.4,12.8-6.6,17.8-13.6,28.3-51.5,26.8-96.5-1.2-37.1-9.5-64.5-23.7-78.8-5.6-5.6-16.3-11.7-16.3-9.2M426,169.9c-3.5.4-5.8,1.2-8.3,2.9-6.6,4.6-9.1,8.8-10.9,18.3-.6,3.1-1.2,5.7-1.4,5.9-.2.2-.6-1.3-1-3.4-.3-2.1-.9-3.4-1.2-3.1-.4.4-2.7,3.9-5.2,7.9-5.5,8.8-5.8,12-2.1,19.4,1.3,2.6,2.2,4.9,1.9,5.1-.6.6-4-3.8-6.5-8.6-1.2-2.3-2.6-4.2-3-4.2-1,0-6.4,9.9-7.5,13.9l-.8,3h29l-.5-4c-.3-2.2-1.2-6.5-2-9.6-2.8-10.9.8-6.7,5.7,6.6,1.5,4.1,2.7,9.2,3.1,13.4.7,7.2,2.4,12.4,4.7,14.3,4.2,3.4,14.9,10,18.6,11.5,3.6,1.4,4.9,1.6,9,.9,9.2-1.5,17.8-6.7,18.8-11.3.3-1.2-.3-5.3-1.2-9s-1.7-7.2-1.7-7.7-1.3-4.2-2.8-8.1c-1.6-4-3.3-10-3.8-13.4-.8-5.2-1-5.8-1.5-3.7-.7,3.4.5,11.5,2.8,19.2,1.1,3.5,2.8,9.8,3.7,14,2.1,9.1,1.7,10.5-4.5,13.9-8.1,4.4-16.8,4.6-24.6.6-3.3-1.7-9.1-6.4-8.5-7,.2-.2,2.2.3,4.5,1,5.3,1.7,16.7,1.3,21.2-.9,4-1.9,3.4-2.2-1.4-.8-3.8,1.1-10.9,1.6-10.9.7s.8-2,1.7-3.8c1.9-3.8,2.2-7.9.9-15.8-1.1-6.9-1.8-8.6-5.4-12.7-2.5-2.8-4-3.7-8.7-5.1-5.9-1.7-13.8-5.9-14.5-7.7-.2-.6,1.8-.2,5.3,1.1,5.4,2,6,2,12,1.2,9.9-1.4,12.2-3.2,13.4-10.4.2-1.4,0-3.7-.6-5.1l-1-2.5-6.6.3c-5.6.2-7.1.6-10,2.5-4.5,3-5.1,2.3-.8-1.1,4-3.2,9.3-4.7,18.3-5.4,4.1-.3,6.3-.7,5.6-1.1-.6-.4-1.9-.7-2.8-.7-1,0-2.7-.9-3.9-2-1.9-1.7-2.9-2-7.7-2s-6.8.5-8.4,1.2c-1.6.7-3.3,1.2-3.8,1.2-1.8,0,4.8-3,10.6-4.8,7.9-2.4,13.7-2,17,1.2,3.5,3.4,5.6,8.5,5.7,13.9,0,3.5.2,4.2.7,2.6,1.2-3.8.8-7.3-1.6-12.5-2.5-5.5-3.3-6.5-6.5-8.6-2.4-1.5-13.2-2.3-20.6-1.5M587.2,180.5c0,.4.6,2.5,1.4,4.6,1.4,4.1,1.8,11.9.8,15.9-1,3.8.7,1.4,2.2-3.2,2-6,1.7-11.5-.7-15.1-1.9-2.9-3.6-3.9-3.6-2.2M513.3,189.7c-2.3,2.4-3.1,8.6-1.6,12.9,1.2,3.6,5,8,8.4,9.8,3.2,1.6,11.2,1.5,16.7-.3,5-1.6,10.2-4.4,10.2-5.4s-1.1-2-2.4-3.7c-3.4-4.2-5-8.6-4.4-11.7l.5-2.6-6.7-.5c-3.7-.3-9.4-.5-12.8-.5-5.4,0-6.3.2-8,2M543,191.9c0,3.2,2.5,7.5,4.7,8,2.5.6,5-1.5,5-4.3s-3.2-6.3-6.8-6.3-2.8.2-2.8,2.6M299.6,202.8c-7.5,7.1-12.2,27.8-12.2,54.4s7.4,56.7,18.5,56.7h3.2l-2.4-3c-7.1-8.9-11.3-28.6-11.3-53.6s4.6-47,11.8-54.4l2.1-2.2h-3.7c-2.9,0-4.2.5-6.1,2.2M703.1,202.8c6.8,7.2,10.9,24.4,11.6,48.1.9,28.2-3.2,50.2-11.1,60l-2.4,3h2.9c5.2,0,8-2.4,11.3-9.6,5-10.9,7.6-26.8,7.6-46.9,0-15.3-1-24.3-3.8-35.9-2.3-9.5-5.9-17-9.1-19.3-1.4-1-3.5-1.6-5.6-1.6h-3.4l2.1,2.2M113,234.1c-2.6,3.3-3.6,9.6-3.6,23.1s.3,13.8,1.5,17.7c.8,2.7,1.9,5.3,2.3,5.8.6.7,4.8,1,16.1,1h15.2l-.3-1.8c-.3-1.8-.5-1.8-14.3-2.2l-14.1-.4-1.3-4c-.7-2.2-1.4-5.6-1.6-7.6l-.3-3.6,15.5-.2,15.5-.2v-5.6l-15.5-.2c-15.4-.2-15.5-.2-15.7-2l-.3-1.8h31.5v-9.6h-28.9v-1.8c0-3.6.6-3.8,15.3-4l14-.2.2-2,.2-2h-15c-14.6,0-15,0-16.4,1.8M319.6,232.6c-2.8.4-3.8,2.1-5.4,9-1,4.2-1.4,9.1-1.4,16.5,0,10.3.8,14.8,3.3,20.7l1.3,3h58.5c38.4,0,58.6-.3,58.7-.8,0-.4.2-1.3.2-1.8,0-.8-12.2-1.1-57.7-1.4l-57.8-.4-1-3.9c-.6-2.2-1.1-5.5-1.3-7.5l-.3-3.5h46.6c25.6,0,47-.2,47.5-.6.5-.3,1.1-1.8,1.4-3.2l.5-2.6h-96.4v-4h96.6l-.6-1.8c-.3-1-1.2-3.2-2.1-4.8l-1.5-3h-44.9c-28.2,0-45.1-.3-45.4-.8-.3-.4,0-1.9.8-3.2l1.3-2.4h40.4c22.2,0,40.7,0,41.2,0,.4,0-.4-.8-1.9-1.7-2.6-1.6-4.1-1.6-40.6-1.8-20.8,0-38.8,0-39.9.1M520.6,239.1c.3,8.3,1.1,9.5,6.2,10.5,3.8.7,4.5-.4.9-1.2-3.4-.7-4.6-3-5.2-10.2-.8-8.7-2.2-8-1.9,1M639.8,232.6c-.2.2.1,1,.7,1.8.9,1.4,2.3,1.5,25.3,1.5h24.4l1.1,2.6c.6,1.4.9,2.9.7,3.2-.2.3-10.8.6-23.6.6s-23.3.2-23.3.4c0,.9,3.7,8.1,4.4,8.6.4.3,10.7.6,22.8.6h22s-.3,1.8-.3,1.8l-.3,1.8-21.6.2-21.6.2.6,2.6c.3,1.4.7,2.9.9,3.2.2.3,9.7.6,21,.6h20.6c0,0-.3,3.5-.3,3.5-.1,2-.7,5.3-1.3,7.5l-1,3.9-19.2.4c-10.6.2-19.3.5-19.4.6-.1,0-.2.9-.2,1.8,0,1.6.5,1.6,20.4,1.6h20.4l1.3-3c3.7-8.9,4.6-25.9,2-37.2-2.3-9.6.4-8.8-29.9-9-14.5-.1-26.4,0-26.6,0M866.2,234.3l.2,2,14,.2c14.7.2,15.3.4,15.3,4v1.8s-14.5,0-14.5,0h-14.5v9.6h31.5l-.3,1.8c-.3,1.8-.4,1.8-15.7,2l-15.5.2v5.6h30.7l-.4,5c-.2,2.8-.9,6.4-1.7,8l-1.3,3h-28.2v4h30.6l1.5-3.4c2.5-5.7,3.5-13.6,3-24.6-.4-10.3-2-17.9-4-19.9-.8-.8-4.6-1.1-16.1-1.3l-15-.2.2,2M103.6,256c0,2.9.1,4,.3,2.6.2-1.4.2-3.8,0-5.2-.2-1.4-.3-.3-.3,2.6M335.4,299c-3.2,27.1-10.2,49.6-18.3,59.3-2.5,3-7.6,6.2-10,6.2-3.6,0-8-2.9-11.4-7.4-1.9-2.6-3.5-4.5-3.5-4,0,1.3,6.6,11.8,9.1,14.6,13.8,14.9,28.8-2.7,37.9-44.5,1.6-7.6,3.4-19.2,4.8-32.3l.4-3.4h-7.7l-1.4,11.7M666.4,290.8c1.9,16.8,3.2,25.1,5.3,34.5,6.1,28,15.5,45.2,25.9,47.6,2.9.7,8.2-1.7,11.6-5.3,2.9-3.1,9.1-13.4,9.1-15.1s-.6,0-1.4,1.4c-2.3,4.2-7.4,8.9-10.7,9.9-13.2,4-25.8-22.4-31-64.8l-1.4-11.7h-7.6l.4,3.4M179.6,339c3.4,3.2,5.3,4.5,5.5,3.8.2-.6-.4-1.7-1.4-2.3-1-.7-3.2-2.4-4.8-3.9-5.2-4.5-4.7-2.8.7,2.4M831.4,336.6c-1.6,1.4-3.7,3.2-4.7,3.8-1,.7-1.6,1.7-1.4,2.3.2.7,2.1-.6,5.5-3.8,5.3-5.1,5.9-6.9.6-2.3M211.9,369c2,3.3,2.8,4.4,6.7,8.9,2.4,2.9,10,8.8,10.6,8.2,1.1-1.1-1.1-4.1-5-6.7-2.4-1.7-6.6-5.4-9.3-8.3-4.2-4.5-4.6-4.8-3-2.1M795.1,371.4c-2.6,2.8-6.5,6.3-8.7,7.8-3.7,2.4-6.2,5.8-5.1,6.9.8.8,8.7-6,13.3-11.5,2-2.4,6-8.5,5.5-8.4-.1,0-2.4,2.3-4.9,5.2M432.9,386.2c0,.2-.7,3.7-1.3,7.6-1.6,10.4-1.6,41.2.1,60.9.8,8.7,1.7,15.9,2,15.9s.6-4.4.6-9.8.4-16.4,1-24.5c.8-11.9.8-17.1-.1-27.3-1.3-15.6-2.1-23.2-2.3-22.7M493.7,421c-.3,5.4-.9,12.1-1.4,14.7-1.8,9.3-.7,66.6,1.8,88.8,1.4,13,6.7,43.2,7.7,44.2.2.2.2-2.3,0-5.6-1.1-14.7-1.4-21.7-2.2-54.7-1.7-69.4-2.9-94.7-4.7-96.7-.3-.4-.8,3.8-1.1,9.2M465.4,426c-.8,12.8-.7,17.4.5,23.9.4,2.5,1.7,11.4,2.8,19.7,1.1,8.3,2.5,17.9,3.1,21.4,1.2,6.8,2.7,9.7,1.9,3.8-.3-2-.7-11.6-.9-21.3-.3-11.4-1-21.2-2-27.7-.9-5.5-2-13.8-2.5-18.5-1.5-13.2-2-13.4-2.7-1.2M504.8,475.9c.3,19.2,1.3,31.3,4.5,51,2,12.3,2.3,14,2.8,13.5.2-.2,0-3.8-.4-7.9-.4-4.2-1.2-16.1-1.6-26.4-.7-16.3-2.1-28.8-4.9-45.4-.4-2.5-.6,3.1-.4,15.3"/>
</svg>