<?xml version="1.0" encoding="UTF-8"?>
<svg id="Layer_1" data-name="Layer 1" xmlns="http://www.w3.org/2000/svg" version="1.1" viewBox="0 0 190 115.5">
  <defs>
    <style>
      .cls-1 {
        fill: #eb6f3e;
        stroke-width: 0px;
      }
    </style>
  </defs>
  <path class="cls-1" d="M81.5,1.5c-1.7,2-4,10.2-4,14.1s-.4,3.6-1,3.9c-1.7,1-1.1,8.1.9,10.6,1,1.3,2.7,4.4,3.8,6.9s2.8,5.3,3.7,6.2c1.5,1.5,1.5,2.3.5,5.8l-1.2,4h-7.2c-3.9,0-9.2.6-11.8,1.4-4.3,1.3-4.9,1.2-9.4-1-8.4-4.2-15-4.9-25.4-2.9-5,.9-9.3,1.5-9.6,1.1-1.3-1.3,6.6-32.6,8.3-32.6s1.6,1.3,3,2.9c1.3,1.6,3.6,3.1,5.1,3.4,1.6.3,4,.9,5.4,1.2,2.2.6,3.5,0,6.8-3,5.1-4.6,6.9-10,4.3-12.8-2.7-3.1-11.9-8.7-14.3-8.7-4.1,0-14.4,6.5-21.5,13.6C5.9,27.5-1.6,46.2,0,60.5c.9,8.8,1.4,10.2,3.8,10.9,5.2,1.5,33.7,7.5,38.2,8.1,8.4,1,9.5,1.4,9.5,3.3s5.1,10.2,9.3,13.9c2.8,2.4,4.1,4.9,6,11l2.5,7.8h53.7l2.5-7.6c2-6.2,3.6-8.8,8-13.6,3.1-3.3,6.2-7.7,6.9-10,1.3-4,1.4-4.1,7-4.6,6.4-.7,41.1-8.3,42-9.3.3-.3.6-6.3.6-13.2-.1-11.3-.4-13.4-2.7-19.4-3.6-9-8.9-17.1-15.3-23.2-6.1-6-16.9-12.6-20.3-12.6s-5.5,2.1-9.3,4.6c-7.9,5.2-8.4,6.7-4.2,13.1,3.6,5.6,8.2,8.1,11.8,6.5,1.4-.7,3.4-1.2,4.5-1.2s3-1.4,4.4-3.1l2.6-3.1,1.9,4.5c2,4.5,5.5,18.4,6.5,24.9.6,4.5.8,4.4-10,2.2-9.1-1.9-14-1.4-23.1,2.2-5.7,2.3-7,2.5-10.3,1.5-2-.6-6.9-1.1-10.8-1.1h-7.1l-1.2-3.9c-1-3.5-.9-4.2,1.5-7.7,1.4-2.1,2.6-4.3,2.6-4.9s1.1-2.6,2.3-4.5c3.4-5,4-8.4,2.3-13.8-.8-2.6-2-6.9-2.6-9.7C111.6.2,111.2,0,96,0s-13.5.3-14.5,1.5Z"/>
</svg>