<?xml version="1.0" encoding="UTF-8"?>
<svg id="Layer_1" data-name="Layer 1" xmlns="http://www.w3.org/2000/svg" version="1.1" viewBox="0 0 32 32">
  <defs>
    <style>
      .cls-1 {
        fill: #ef7d54;
      }

      .cls-1, .cls-2, .cls-3, .cls-4, .cls-5 {
        stroke-width: 0px;
      }

      .cls-2 {
        fill: #f9ac91;
      }

      .cls-3 {
        fill: #f6ccc0;
      }

      .cls-4 {
        fill: #282828;
      }

      .cls-5 {
        fill: #eb6f3e;
      }
    </style>
  </defs>
  <rect class="cls-4" x="0" y="0" width="32" height="32" rx="4" ry="4"/>
  <g id="Calendar">
    <rect class="cls-5" x="5.7" y="6.8" width="20.7" height="4.1"/>
    <path class="cls-2" d="M10.5,8.8h-1.4c-.4,0-.7-.3-.7-.7v-2.1c0-.8.6-1.4,1.4-1.4s1.4.6,1.4,1.4v2.1c0,.4-.3.7-.7.7Z"/>
    <path class="cls-2" d="M22.9,8.8h-1.4c-.4,0-.7-.3-.7-.7v-2.1c0-.8.6-1.4,1.4-1.4s1.4.6,1.4,1.4v2.1c0,.4-.3.7-.7.7Z"/>
    <rect class="cls-3" x="5.7" y="10.9" width="20.7" height="13.1"/>
    <rect class="cls-2" x="7.7" y="16.4" width="16.5" height="2.8"/>
    <rect class="cls-1" x="9.1" y="15" width="2.1" height="5.5" rx=".7" ry=".7"/>
    <rect class="cls-1" x="11.2" y="13.6" width="2.1" height="8.3" rx=".7" ry=".7"/>
    <rect class="cls-2" x="5.7" y="24" width="20.7" height="1.4"/>
    <rect class="cls-2" x="12.6" y="8.1" width="6.9" height="1.4"/>
    <rect class="cls-1" x="20.8" y="15" width="2.1" height="5.5" rx=".7" ry=".7"/>
    <rect class="cls-1" x="18.8" y="13.6" width="2.1" height="8.3" rx=".7" ry=".7"/>
  </g>
</svg>